<svg width="40" height="40" fill="none" xmlns="http://www.w3.org/2000/svg"><g clip-path="url(#a)"><path d="M20 40c11.046 0 20-8.954 20-20S31.046 0 20 0 0 8.954 0 20s8.954 20 20 20Z" fill="#0052FF"/><path fill-rule="evenodd" clip-rule="evenodd" d="M5.938 20c0 7.767 6.295 14.063 14.062 14.063 7.767 0 14.063-6.297 14.063-14.063 0-7.767-6.297-14.063-14.063-14.063-7.767 0-14.063 6.296-14.063 14.063Zm10.468-4.531a.937.937 0 0 0-.937.937v7.188c0 .517.42.937.937.937h7.188c.517 0 .937-.42.937-.937v-7.188a.937.937 0 0 0-.937-.937h-7.188Z" fill="#fff"/></g><defs><clipPath id="a"><path fill="#fff" d="M0 0h40v40H0z"/></clipPath></defs></svg>