<svg width="40" height="40" fill="none" xmlns="http://www.w3.org/2000/svg"><g clip-path="url(#a)"><path d="M20 40c11.046 0 20-8.954 20-20S31.046 0 20 0 0 8.954 0 20s8.954 20 20 20Z" fill="url(#b)"/><path d="M12.559 15.447c4.023-3.93 10.554-3.93 14.578 0l.484.477a.491.491 0 0 1 0 .71l-1.656 1.618a.26.26 0 0 1-.367 0l-.664-.648c-2.813-2.743-7.36-2.743-10.172 0l-.711.695a.26.26 0 0 1-.367 0l-1.657-1.617a.49.49 0 0 1 0-.711l.532-.524Zm18.007 3.344 1.477 1.438a.491.491 0 0 1 0 .71l-6.648 6.493a.523.523 0 0 1-.727 0l-4.719-4.61a.132.132 0 0 0-.18 0l-4.718 4.61a.524.524 0 0 1-.727 0L7.652 20.94a.491.491 0 0 1 0-.712l1.477-1.437a.524.524 0 0 1 .726 0l4.72 4.61a.132.132 0 0 0 .179 0l4.719-4.61a.524.524 0 0 1 .726 0l4.719 4.61a.132.132 0 0 0 .18 0l4.718-4.61a.553.553 0 0 1 .75 0Z" fill="#fff"/></g><defs><radialGradient id="b" cx="0" cy="0" r="1" gradientUnits="userSpaceOnUse" gradientTransform="matrix(40 0 0 40 0 20)"><stop stop-color="#5D9DF6"/><stop offset="1" stop-color="#006FFF"/></radialGradient><clipPath id="a"><path fill="#fff" d="M0 0h40v40H0z"/></clipPath></defs></svg>